<svg width="24" height="24" viewBox="0 0 24 24" fill="none" xmlns="http://www.w3.org/2000/svg">
<g id="8687115_ic_fluent_column_triple_edit_icon 1">
<path id="Vector" d="M3.6001 4.80001C3.6001 4.13727 4.13735 3.60001 4.8001 3.60001H7.2001C7.86283 3.60001 8.4001 4.13727 8.4001 4.80001V19.2C8.4001 19.8628 7.86285 20.4 7.2001 20.4H4.8001C4.13736 20.4 3.6001 19.8628 3.6001 19.2V4.80001ZM7.2001 4.80001H4.8001V19.2H7.2001V4.80001ZM9.6001 4.80001C9.6001 4.13727 10.1374 3.60001 10.8001 3.60001H13.2001C13.8629 3.60001 14.4001 4.13727 14.4001 4.80001V15.5312L13.2001 16.7312V4.80001H10.8001V19.2H11.3697C11.3509 19.2616 11.3337 19.3237 11.3181 19.3865L11.0647 20.4H10.8001C10.1374 20.4 9.6001 19.8628 9.6001 19.2V4.80001ZM20.4001 4.80001V10.8036C19.9904 10.8223 19.5834 10.9137 19.2001 11.078V4.80001H16.8001V13.1312L15.6001 14.3312V4.80001C15.6001 4.13727 16.1373 3.60001 16.8001 3.60001H19.2001C19.8629 3.60001 20.4001 4.13727 20.4001 4.80001ZM13.1759 18.4526L18.9711 12.6574C19.8475 11.7809 21.2685 11.7809 22.1449 12.6574C23.0213 13.5337 23.0213 14.9546 22.1449 15.8311L16.3496 21.6264C16.0117 21.9643 15.5883 22.204 15.1248 22.3199L13.3273 22.7693C12.5456 22.9646 11.8375 22.2566 12.033 21.475L12.4823 19.6775C12.5982 19.2139 12.8379 18.7906 13.1759 18.4526Z" fill="#18283A"/>
</g>
</svg>
